<svg width="18" height="19" viewBox="0 0 18 19" fill="none" xmlns="http://www.w3.org/2000/svg">
<path d="M8.9268 13.5127V11.2726" stroke="#292A2F" stroke-width="1.54454" stroke-linecap="round" stroke-linejoin="round"/>
<path d="M16.7077 9.2175L16.683 9.2354C14.6185 10.5072 11.8926 11.2751 8.92289 11.2751C5.95319 11.2751 3.23494 10.5072 1.17132 9.2354L1.14575 9.2175" stroke="#292A2F" stroke-width="1.54454" stroke-linecap="round" stroke-linejoin="round"/>
<path fill-rule="evenodd" clip-rule="evenodd" d="M1.07568 10.814C1.07568 5.57014 3.03872 3.8219 8.92698 3.8219C14.8161 3.8219 16.7783 5.57014 16.7783 10.814C16.7783 16.0579 14.8161 17.8061 8.92698 17.8061C3.03872 17.8061 1.07568 16.0579 1.07568 10.814Z" stroke="#292A2F" stroke-width="1.54454" stroke-linecap="round" stroke-linejoin="round"/>
<path d="M11.7079 4.01078V3.47378C11.7079 2.39637 10.9212 1.52267 9.95201 1.52267H7.90203C6.93287 1.52267 6.14612 2.39637 6.14612 3.47378V4.01078" stroke="#292A2F" stroke-width="1.54454" stroke-linecap="round" stroke-linejoin="round"/>
</svg>
