<svg width="13" height="17" viewBox="0 0 13 17" fill="none" xmlns="http://www.w3.org/2000/svg">
<path fill-rule="evenodd" clip-rule="evenodd" d="M6.76219 15.7996C3.94767 15.7996 1.54413 15.3616 1.54413 13.6076C1.54413 11.8535 3.93242 10.2343 6.76219 10.2343C9.57671 10.2343 11.9803 11.8378 11.9803 13.5919C11.9803 15.3452 9.59196 15.7996 6.76219 15.7996Z" stroke="#292A2F" stroke-width="1.54454" stroke-linecap="round" stroke-linejoin="round"/>
<path fill-rule="evenodd" clip-rule="evenodd" d="M6.75672 7.80361C8.60373 7.80361 10.1007 6.3066 10.1007 4.45959C10.1007 2.61258 8.60373 1.11487 6.75672 1.11487C4.90971 1.11487 3.41201 2.61258 3.41201 4.45959C3.40577 6.30036 4.89239 7.79737 6.73316 7.80361C6.74148 7.80361 6.7491 7.80361 6.75672 7.80361Z" stroke="#292A2F" stroke-width="1.54454" stroke-linecap="round" stroke-linejoin="round"/>
</svg>
