<svg width="20" height="19" viewBox="0 0 20 19" fill="none" xmlns="http://www.w3.org/2000/svg">
<path fill-rule="evenodd" clip-rule="evenodd" d="M4.02013 3.5714C2.99168 4.59986 2.46691 6.3559 2.46691 9.43196C2.46691 12.508 2.99168 14.2641 4.02013 15.2925C5.04859 16.321 6.80463 16.8457 9.88069 16.8457C12.9568 16.8457 14.7128 16.321 15.7412 15.2925C16.7697 14.2641 17.2945 12.508 17.2945 9.43196C17.2945 6.3559 16.7697 4.59986 15.7412 3.5714C14.7128 2.54295 12.9568 2.01818 9.88069 2.01818C6.80463 2.01818 5.04859 2.54295 4.02013 3.5714ZM2.70955 2.26082C4.28762 0.682752 6.70183 0.164734 9.88069 0.164734C13.0596 0.164734 15.4738 0.682752 17.0518 2.26082C18.6299 3.83889 19.1479 6.2531 19.1479 9.43196C19.1479 12.6108 18.6299 15.025 17.0518 16.6031C15.4738 18.1812 13.0596 18.6992 9.88069 18.6992C6.70183 18.6992 4.28762 18.1812 2.70955 16.6031C1.13148 15.025 0.613464 12.6108 0.613464 9.43196C0.613464 6.2531 1.13148 3.83889 2.70955 2.26082ZM9.88069 4.23985C10.3925 4.23985 10.8074 4.65476 10.8074 5.16658V13.645C10.8074 14.1569 10.3925 14.5718 9.88069 14.5718C9.36887 14.5718 8.95397 14.1569 8.95397 13.645V5.16658C8.95397 4.65476 9.36887 4.23985 9.88069 4.23985ZM5.97992 6.98403C6.49174 6.98403 6.90664 7.39894 6.90664 7.91075V13.6445C6.90664 14.1563 6.49174 14.5712 5.97992 14.5712C5.46811 14.5712 5.0532 14.1563 5.0532 13.6445V7.91075C5.0532 7.39894 5.46811 6.98403 5.97992 6.98403ZM13.7172 10.014C14.2291 10.014 14.644 10.4289 14.644 10.9407V13.6449C14.644 14.1567 14.2291 14.5716 13.7172 14.5716C13.2054 14.5716 12.7905 14.1567 12.7905 13.6449V10.9407C12.7905 10.4289 13.2054 10.014 13.7172 10.014Z" fill="#292A2F"/>
</svg>
