<svg width="21" height="21" viewBox="0 0 21 21" fill="none" xmlns="http://www.w3.org/2000/svg">
<path d="M9.392 15.2226H3.97693" stroke="#292A2F" stroke-width="1.54454" stroke-linecap="round" stroke-linejoin="round"/>
<path fill-rule="evenodd" clip-rule="evenodd" d="M12.7897 15.2233C12.7897 16.9315 13.3594 17.5004 15.0668 17.5004C16.7743 17.5004 17.344 16.9315 17.344 15.2233C17.344 13.5151 16.7743 12.9462 15.0668 12.9462C13.3594 12.9462 12.7897 13.5151 12.7897 15.2233Z" stroke="#292A2F" stroke-width="1.54454" stroke-linecap="round" stroke-linejoin="round"/>
<path d="M11.9294 6.44752H17.3438" stroke="#292A2F" stroke-width="1.54454" stroke-linecap="round" stroke-linejoin="round"/>
<path fill-rule="evenodd" clip-rule="evenodd" d="M8.53161 6.44637C8.53161 4.7389 7.96195 4.16925 6.25449 4.16925C4.54628 4.16925 3.97662 4.7389 3.97662 6.44637C3.97662 8.15458 4.54628 8.72348 6.25449 8.72348C7.96195 8.72348 8.53161 8.15458 8.53161 6.44637Z" stroke="#292A2F" stroke-width="1.54454" stroke-linecap="round" stroke-linejoin="round"/>
</svg>
